HIERARCHY
ROOT mixamorig:Hips
{
	OFFSET -0.000008 104.274872 1.554316
	CHANNELS 6 Xposition Yposition Zposition Xrotation Yrotation Zrotation
	JOINT mixamorig:Spine
	{
		OFFSET -0.000005 10.181595 0.131519
		CHANNELS 6 Xposition Yposition Zposition Xrotation Yrotation Zrotation
		JOINT mixamorig:Spine1
		{
			OFFSET -0.000000 9.893959 -1.470707
			CHANNELS 6 Xposition Yposition Zposition Xrotation Yrotation Zrotation
			JOINT mixamorig:Spine2
			{
				OFFSET -0.000000 9.220757 -1.370641
				CHANNELS 6 Xposition Yposition Zposition Xrotation Yrotation Zrotation
				JOINT mixamorig:Neck
				{
					OFFSET 0.000001 16.740417 -2.049036
					CHANNELS 6 Xposition Yposition Zposition Xrotation Yrotation Zrotation
					JOINT mixamorig:Head
					{
						OFFSET 0.000000 9.617874 1.685006
						CHANNELS 6 Xposition Yposition Zposition Xrotation Yrotation Zrotation
						JOINT mixamorig:HeadTop_End
						{
							OFFSET 0.000002 22.037354 7.501101
							CHANNELS 6 Xposition Yposition Zposition Xrotation Yrotation Zrotation
							End Site
							{
								OFFSET 0.000168 2310.654297 -282.823242
							}
						}
					}
				}
				JOINT mixamorig:RightShoulder
				{
					OFFSET -4.569970 11.014908 -2.160885
					CHANNELS 6 Xposition Yposition Zposition Xrotation Yrotation Zrotation
					JOINT mixamorig:RightArm
					{
						OFFSET -10.592851 -0.524811 -2.232101
						CHANNELS 6 Xposition Yposition Zposition Xrotation Yrotation Zrotation
						JOINT mixamorig:RightForeArm
						{
							OFFSET -27.841511 0.000031 -0.000004
							CHANNELS 6 Xposition Yposition Zposition Xrotation Yrotation Zrotation
							JOINT mixamorig:RightHand
							{
								OFFSET -28.328831 -0.000015 0.000015
								CHANNELS 6 Xposition Yposition Zposition Xrotation Yrotation Zrotation
								JOINT mixamorig:RightHandThumb1
								{
									OFFSET -2.464806 -1.573990 2.681852
									CHANNELS 6 Xposition Yposition Zposition Xrotation Yrotation Zrotation
									JOINT mixamorig:RightHandThumb2
									{
										OFFSET -3.215179 -1.872803 1.924282
										CHANNELS 6 Xposition Yposition Zposition Xrotation Yrotation Zrotation
										JOINT mixamorig:RightHandThumb3
										{
											OFFSET -2.654831 -1.527969 1.512609
											CHANNELS 6 Xposition Yposition Zposition Xrotation Yrotation Zrotation
											JOINT mixamorig:RightHandThumb4
											{
												OFFSET -2.018814 -1.152008 1.108052
												CHANNELS 6 Xposition Yposition Zposition Xrotation Yrotation Zrotation
												End Site
												{
													OFFSET -188.809540 -114.533607 132.431396
												}
											}
										}
									}
								}
								JOINT mixamorig:RightHandIndex1
								{
									OFFSET -9.108284 -0.517868 2.259835
									CHANNELS 6 Xposition Yposition Zposition Xrotation Yrotation Zrotation
									JOINT mixamorig:RightHandIndex2
									{
										OFFSET -3.699989 0.000000 0.001215
										CHANNELS 6 Xposition Yposition Zposition Xrotation Yrotation Zrotation
										JOINT mixamorig:RightHandIndex3
										{
											OFFSET -2.850006 0.000031 -0.000522
											CHANNELS 6 Xposition Yposition Zposition Xrotation Yrotation Zrotation
											JOINT mixamorig:RightHandIndex4
											{
												OFFSET -2.772186 -0.000015 -0.000020
												CHANNELS 6 Xposition Yposition Zposition Xrotation Yrotation Zrotation
												End Site
												{
													OFFSET -277.218445 0.000000 -0.050231
												}
											}
										}
									}
								}
								JOINT mixamorig:RightHandMiddle1
								{
									OFFSET -9.532516 -0.000031 -0.000023
									CHANNELS 6 Xposition Yposition Zposition Xrotation Yrotation Zrotation
									JOINT mixamorig:RightHandMiddle2
									{
										OFFSET -3.700005 -0.000015 0.003713
										CHANNELS 6 Xposition Yposition Zposition Xrotation Yrotation Zrotation
										JOINT mixamorig:RightHandMiddle3
										{
											OFFSET -2.949974 0.000015 -0.002054
											CHANNELS 6 Xposition Yposition Zposition Xrotation Yrotation Zrotation
											JOINT mixamorig:RightHandMiddle4
											{
												OFFSET -2.946640 0.000000 -0.000156
												CHANNELS 6 Xposition Yposition Zposition Xrotation Yrotation Zrotation
												End Site
												{
													OFFSET -294.664337 0.000000 -0.113670
												}
											}
										}
									}
								}
								JOINT mixamorig:RightHandRing1
								{
									OFFSET -9.103600 -0.043076 -1.865134
									CHANNELS 6 Xposition Yposition Zposition Xrotation Yrotation Zrotation
									JOINT mixamorig:RightHandRing2
									{
										OFFSET -3.379288 0.000000 -0.001055
										CHANNELS 6 Xposition Yposition Zposition Xrotation Yrotation Zrotation
										JOINT mixamorig:RightHandRing3
										{
											OFFSET -2.889687 -0.000015 0.000379
											CHANNELS 6 Xposition Yposition Zposition Xrotation Yrotation Zrotation
											JOINT mixamorig:RightHandRing4
											{
												OFFSET -2.638809 -0.000015 0.000941
												CHANNELS 6 Xposition Yposition Zposition Xrotation Yrotation Zrotation
												End Site
												{
													OFFSET -263.880371 0.000000 0.516020
												}
											}
										}
									}
								}
								JOINT mixamorig:RightHandPinky1
								{
									OFFSET -8.076683 -0.486710 -3.806280
									CHANNELS 6 Xposition Yposition Zposition Xrotation Yrotation Zrotation
									JOINT mixamorig:RightHandPinky2
									{
										OFFSET -3.600014 -0.000015 -0.003747
										CHANNELS 6 Xposition Yposition Zposition Xrotation Yrotation Zrotation
										JOINT mixamorig:RightHandPinky3
										{
											OFFSET -2.099983 0.000000 -0.005739
											CHANNELS 6 Xposition Yposition Zposition Xrotation Yrotation Zrotation
											JOINT mixamorig:RightHandPinky4
											{
												OFFSET -2.115768 -0.000031 -0.003680
												CHANNELS 6 Xposition Yposition Zposition Xrotation Yrotation Zrotation
												End Site
												{
													OFFSET -211.577087 0.000000 -0.350686
												}
											}
										}
									}
								}
							}
						}
					}
				}
				JOINT mixamorig:LeftShoulder
				{
					OFFSET 4.570447 11.014725 -2.160855
					CHANNELS 6 Xposition Yposition Zposition Xrotation Yrotation Zrotation
					JOINT mixamorig:LeftArm
					{
						OFFSET 10.592371 -0.524597 -2.232119
						CHANNELS 6 Xposition Yposition Zposition Xrotation Yrotation Zrotation
						JOINT mixamorig:LeftForeArm
						{
							OFFSET 27.841532 -0.000031 0.000026
							CHANNELS 6 Xposition Yposition Zposition Xrotation Yrotation Zrotation
							JOINT mixamorig:LeftHand
							{
								OFFSET 28.328846 -0.000061 0.000022
								CHANNELS 6 Xposition Yposition Zposition Xrotation Yrotation Zrotation
								JOINT mixamorig:LeftHandThumb1
								{
									OFFSET 2.466141 -1.576172 2.681732
									CHANNELS 6 Xposition Yposition Zposition Xrotation Yrotation Zrotation
									JOINT mixamorig:LeftHandThumb2
									{
										OFFSET 3.217812 -1.872070 1.916482
										CHANNELS 6 Xposition Yposition Zposition Xrotation Yrotation Zrotation
										JOINT mixamorig:LeftHandThumb3
										{
											OFFSET 2.656029 -1.528778 1.514513
											CHANNELS 6 Xposition Yposition Zposition Xrotation Yrotation Zrotation
											JOINT mixamorig:LeftHandThumb4
											{
												OFFSET 2.020889 -1.154053 1.115139
												CHANNELS 6 Xposition Yposition Zposition Xrotation Yrotation Zrotation
												End Site
												{
													OFFSET 190.885437 -115.081749 130.048782
												}
											}
										}
									}
								}
								JOINT mixamorig:LeftHandIndex1
								{
									OFFSET 9.109314 -0.518021 2.259871
									CHANNELS 6 Xposition Yposition Zposition Xrotation Yrotation Zrotation
									JOINT mixamorig:LeftHandIndex2
									{
										OFFSET 3.699989 0.000000 -0.000322
										CHANNELS 6 Xposition Yposition Zposition Xrotation Yrotation Zrotation
										JOINT mixamorig:LeftHandIndex3
										{
											OFFSET 2.850006 0.000000 0.000352
											CHANNELS 6 Xposition Yposition Zposition Xrotation Yrotation Zrotation
											JOINT mixamorig:LeftHandIndex4
											{
												OFFSET 2.774864 -0.000031 -0.000027
												CHANNELS 6 Xposition Yposition Zposition Xrotation Yrotation Zrotation
												End Site
												{
													OFFSET 277.486267 0.000000 -0.009857
												}
											}
										}
									}
								}
								JOINT mixamorig:LeftHandMiddle1
								{
									OFFSET 9.533394 0.000061 0.000044
									CHANNELS 6 Xposition Yposition Zposition Xrotation Yrotation Zrotation
									JOINT mixamorig:LeftHandMiddle2
									{
										OFFSET 3.699989 -0.000015 -0.000231
										CHANNELS 6 Xposition Yposition Zposition Xrotation Yrotation Zrotation
										JOINT mixamorig:LeftHandMiddle3
										{
											OFFSET 2.949997 -0.000015 -0.000059
											CHANNELS 6 Xposition Yposition Zposition Xrotation Yrotation Zrotation
											JOINT mixamorig:LeftHandMiddle4
											{
												OFFSET 2.952896 0.000031 0.000063
												CHANNELS 6 Xposition Yposition Zposition Xrotation Yrotation Zrotation
												End Site
												{
													OFFSET 295.289337 0.000000 0.022810
												}
											}
										}
									}
								}
								JOINT mixamorig:LeftHandRing1
								{
									OFFSET 9.104523 -0.042999 -1.865074
									CHANNELS 6 Xposition Yposition Zposition Xrotation Yrotation Zrotation
									JOINT mixamorig:LeftHandRing2
									{
										OFFSET 3.150009 -0.000031 0.000043
										CHANNELS 6 Xposition Yposition Zposition Xrotation Yrotation Zrotation
										JOINT mixamorig:LeftHandRing3
										{
											OFFSET 2.949982 -0.000015 0.000040
											CHANNELS 6 Xposition Yposition Zposition Xrotation Yrotation Zrotation
											JOINT mixamorig:LeftHandRing4
											{
												OFFSET 2.644348 0.000000 0.000057
												CHANNELS 6 Xposition Yposition Zposition Xrotation Yrotation Zrotation
												End Site
												{
													OFFSET 264.434631 0.000000 0.012105
												}
											}
										}
									}
								}
								JOINT mixamorig:LeftHandPinky1
								{
									OFFSET 8.077789 -0.486847 -3.806259
									CHANNELS 6 Xposition Yposition Zposition Xrotation Yrotation Zrotation
									JOINT mixamorig:LeftHandPinky2
									{
										OFFSET 3.599953 0.000031 0.014727
										CHANNELS 6 Xposition Yposition Zposition Xrotation Yrotation Zrotation
										JOINT mixamorig:LeftHandPinky3
										{
											OFFSET 2.100021 0.000015 0.007705
											CHANNELS 6 Xposition Yposition Zposition Xrotation Yrotation Zrotation
											JOINT mixamorig:LeftHandPinky4
											{
												OFFSET 2.125504 0.000031 0.007517
												CHANNELS 6 Xposition Yposition Zposition Xrotation Yrotation Zrotation
												End Site
												{
													OFFSET 212.550781 0.000000 0.625752
												}
											}
										}
									}
								}
							}
						}
					}
				}
			}
		}
	}
	JOINT mixamorig:RightUpLeg
	{
		OFFSET -8.207787 -6.751648 -1.599560
		CHANNELS 6 Xposition Yposition Zposition Xrotation Yrotation Zrotation
		JOINT mixamorig:RightLeg
		{
			OFFSET -0.000002 -44.370117 0.345942
			CHANNELS 6 Xposition Yposition Zposition Xrotation Yrotation Zrotation
			JOINT mixamorig:RightFoot
			{
				OFFSET 0.000003 -44.423679 -3.043532
				CHANNELS 6 Xposition Yposition Zposition Xrotation Yrotation Zrotation
				JOINT mixamorig:RightToeBase
				{
					OFFSET -0.000002 -8.728671 10.710558
					CHANNELS 6 Xposition Yposition Zposition Xrotation Yrotation Zrotation
					JOINT mixamorig:RightToe_End
					{
						OFFSET -0.000001 -0.000679 9.278119
						CHANNELS 6 Xposition Yposition Zposition Xrotation Yrotation Zrotation
						End Site
						{
							OFFSET 0.000000 -0.067690 927.812134
						}
					}
				}
			}
		}
	}
	JOINT mixamorig:LeftUpLeg
	{
		OFFSET 8.207793 -6.751686 -1.599556
		CHANNELS 6 Xposition Yposition Zposition Xrotation Yrotation Zrotation
		JOINT mixamorig:LeftLeg
		{
			OFFSET -0.000004 -44.370014 0.346954
			CHANNELS 6 Xposition Yposition Zposition Xrotation Yrotation Zrotation
			JOINT mixamorig:LeftFoot
			{
				OFFSET -0.000001 -44.423672 -3.044401
				CHANNELS 6 Xposition Yposition Zposition Xrotation Yrotation Zrotation
				JOINT mixamorig:LeftToeBase
				{
					OFFSET -0.000002 -8.728669 10.710558
					CHANNELS 6 Xposition Yposition Zposition Xrotation Yrotation Zrotation
					JOINT mixamorig:LeftToe_End
					{
						OFFSET -0.000003 -0.000679 9.278133
						CHANNELS 6 Xposition Yposition Zposition Xrotation Yrotation Zrotation
						End Site
						{
							OFFSET 0.000000 -0.068021 927.813477
						}
					}
				}
			}
		}
	}
}
MOTION
Frames: 3
Frame Time: 0.033333
0.000006 104.270477 1.554256 0.000010 0.000003 -0.000113 -0.000005 10.181587 0.131522 0.000001 -0.000003 0.000084 -0.000000 9.893967 -1.470711 0.000001 0.000000 -0.000000 -0.000000 9.220802 -1.370642 0.000000 -0.000000 -0.000000 0.000001 16.740433 -2.049030 0.000000 -0.000000 -0.000000 0.000000 9.617859 1.685014 0.000000 0.000000 0.000000 0.000002 22.037384 7.501101 0.000000 -0.000000 0.000000 -4.569968 11.014880 -2.160881 0.000008 0.000001 -0.000038 -10.592870 -0.524682 -2.232021 74.023179 8.362997 -6.309468 -27.841532 0.000010 0.000531 -57.114049 122.519892 89.564940 -28.328808 0.000005 0.000030 -0.000323 -0.000043 0.000008 -2.464420 -1.573766 2.682342 -46.733770 -166.880154 -6.497240 -3.215283 -1.872583 1.924653 155.325441 32.274809 7.234853 -2.654956 -1.527891 1.513088 149.201193 26.439049 -37.518943 -2.018834 -1.152006 1.108053 -0.000004 -0.000001 0.000002 -9.108379 -0.517545 2.260155 104.057918 16.081856 -20.578841 -3.700061 0.000293 0.001531 100.787467 14.113487 -16.988431 -2.850084 0.000371 -0.000246 99.712661 10.982299 -13.004538 -2.772177 0.000003 -0.000019 0.000001 0.000002 -0.000004 -9.532586 0.000272 0.000289 100.456155 14.780768 -17.883088 -3.700065 0.000333 0.003989 98.828650 11.405782 -13.188761 -2.950052 0.000345 -0.001798 98.765860 10.577831 -12.313201 -2.946640 0.000015 -0.000156 -0.000001 -0.000000 0.000000 -9.103705 -0.042745 -1.864851 99.064367 15.297590 -17.840789 -3.379327 0.000354 -0.000793 99.655861 8.323018 -9.871933 -2.889735 0.000353 0.000652 101.956556 5.627224 -6.995949 -2.638810 -0.000019 0.000950 -0.000001 -0.000000 0.000001 -8.076740 -0.486377 -3.805997 93.837886 15.849345 -16.774004 -3.600028 0.000292 -0.003484 97.122196 6.783588 -7.288349 -2.100015 0.000331 -0.005473 96.692434 2.923862 -3.050034 -2.115778 -0.000025 -0.003682 0.000000 0.000001 -0.000002 4.570446 11.014691 -2.160851 -0.000018 0.000010 -0.000021 10.592367 -0.524511 -2.232314 70.802301 2.435333 -1.730826 27.841837 0.000153 -0.000188 103.699948 -60.210378 72.863652 28.328823 -0.000029 0.000026 0.000022 -0.000089 0.000000 2.465897 -1.576101 2.681894 -49.370086 168.117183 14.518424 3.217837 -1.871749 1.916385 155.146695 -28.180227 16.999069 2.656100 -1.528648 1.514453 137.071638 -28.596537 46.152773 2.020898 -1.154079 1.115139 0.000003 0.000000 0.000006 9.109363 -0.517846 2.259735 89.395729 -14.809179 14.643417 3.700051 0.000172 -0.000488 88.527591 -12.769347 12.464367 2.850065 0.000186 0.000193 84.057916 -10.682722 9.632629 2.774891 -0.000029 -0.000033 -0.000001 0.000001 -0.000002 9.533451 0.000252 -0.000102 91.546849 -13.855385 14.221858 3.700036 0.000199 -0.000366 90.988338 -11.736106 11.936152 2.950058 0.000175 -0.000198 89.222344 -14.471791 14.281682 2.952878 -0.000033 0.000070 0.000002 0.000000 -0.000002 9.104587 -0.042811 -1.865236 90.233069 -13.589764 13.646547 3.150054 0.000214 -0.000085 95.630783 -12.341019 13.608197 2.950020 0.000190 -0.000090 97.328174 -13.418070 15.235927 2.644324 0.000016 0.000046 0.000002 0.000000 0.000003 8.077840 -0.486694 -3.806420 81.791925 -15.878674 14.282352 3.599988 0.000206 0.014551 83.339673 -12.459716 11.548900 2.100046 0.000193 0.007533 84.312224 -11.581994 10.927350 2.125500 -0.000025 0.007511 -0.000001 0.000001 0.000001 -8.207786 -6.751667 -1.599560 -0.077001 -0.000003 0.000080 -0.000002 -44.370110 0.345938 0.153719 -0.000000 -0.000000 0.000000 -44.423679 -3.043532 -0.076700 0.000000 -0.000002 -0.000006 -8.728667 10.710559 -0.000009 -0.000000 -0.000000 -0.000001 -0.000679 9.278123 0.000000 -0.000000 -0.000000 8.207792 -6.751710 -1.599556 -0.074518 -0.000003 0.000081 -0.000002 -44.370014 0.346960 0.148822 0.000002 0.000000 -0.000001 -44.423664 -3.044403 -0.074314 0.000000 -0.000002 -0.000004 -8.728671 10.710558 0.000007 -0.000000 -0.000000 0.000000 -0.000680 9.278137 -0.000000 0.000000 -0.000001 
0.000006 104.270477 1.554256 0.000010 0.000003 -0.000113 -0.000005 10.181587 0.131522 0.000001 -0.000003 0.000084 -0.000000 9.893967 -1.470711 0.000001 0.000000 -0.000000 -0.000000 9.220802 -1.370642 0.000000 -0.000000 -0.000000 0.000001 16.740433 -2.049030 0.000000 -0.000000 -0.000000 0.000000 9.617859 1.685014 0.000000 0.000000 0.000000 0.000002 22.037384 7.501101 0.000000 -0.000000 0.000000 -4.569968 11.014880 -2.160881 0.000008 0.000001 -0.000038 -10.592864 -0.524665 -2.232032 73.638462 5.693490 -4.263806 -27.841543 0.000005 0.000558 -56.884739 123.978083 91.035179 -28.328812 0.000023 0.000025 -0.000318 -0.000044 0.000007 -2.464443 -1.573723 2.682291 -52.726984 -170.992515 -24.118614 -3.215280 -1.872580 1.924657 153.999756 31.482613 3.524821 -2.654962 -1.527880 1.513086 146.500796 26.953202 -37.891612 -2.018837 -1.152012 1.108071 -0.000005 -0.000000 0.000000 -9.108384 -0.517562 2.260147 104.102021 15.803326 -20.241901 -3.700063 0.000320 0.001567 101.647558 14.126142 -17.261889 -2.850090 0.000365 -0.000228 101.033777 11.226814 -13.605721 -2.772155 0.000000 -0.000008 -0.000000 0.000001 0.000003 -9.532590 0.000260 0.000276 99.711794 17.017669 -20.287424 -3.700070 0.000321 0.004002 100.664721 13.626753 -16.281702 -2.950064 0.000338 -0.001783 102.622718 12.083182 -15.048404 -2.946659 -0.000015 -0.000155 -0.000002 0.000003 -0.000002 -9.103706 -0.042760 -1.864857 97.880962 18.123671 -20.699180 -3.379333 0.000319 -0.000774 99.502531 10.244101 -12.109280 -2.889752 0.000343 0.000666 104.530014 7.293226 -9.475114 -2.638812 -0.000013 0.000935 0.000001 -0.000000 0.000001 -8.076749 -0.486396 -3.805993 91.593923 19.779845 -20.168253 -3.600040 0.000305 -0.003510 93.626293 8.985575 -9.189854 -2.100017 0.000324 -0.005466 96.084943 4.455105 -4.714910 -2.115771 -0.000056 -0.003688 0.000001 -0.000000 -0.000005 4.570446 11.014691 -2.160851 -0.000018 0.000010 -0.000021 10.592356 -0.524545 -2.232257 72.403482 16.912030 -12.420269 27.841845 0.000167 -0.000220 103.917619 -56.676927 69.154388 28.328856 -0.000014 0.000023 0.000020 -0.000089 -0.000000 2.466024 -1.576159 2.681917 -37.828555 165.268858 -16.018539 3.217859 -1.871837 1.916407 161.027256 -23.271115 37.761510 2.656105 -1.528679 1.514500 137.197450 -28.378229 56.088588 2.020888 -1.154102 1.115145 -0.000002 0.000006 0.000001 9.109384 -0.517853 2.259749 89.956323 -17.561987 17.536270 3.700047 0.000180 -0.000472 87.361227 -11.619508 11.115579 2.850048 0.000192 0.000199 85.736721 -8.291586 7.697194 2.774880 -0.000029 -0.000026 -0.000000 -0.000001 0.000003 9.533478 0.000218 -0.000068 91.849003 -16.970655 17.509646 3.700040 0.000202 -0.000390 91.673132 -9.764955 10.050218 2.950038 0.000207 -0.000208 91.382569 -8.819810 9.037246 2.952872 -0.000014 0.000056 0.000002 -0.000001 0.000001 9.104606 -0.042829 -1.865213 91.770067 -16.565654 17.079971 3.150050 0.000226 -0.000097 96.454839 -11.642950 13.025180 2.950027 0.000197 -0.000100 97.343945 -9.475906 10.770320 2.644325 0.000028 0.000059 -0.000001 -0.000002 0.000003 8.077854 -0.486709 -3.806390 84.995871 -19.133397 18.109613 3.600023 0.000199 0.014576 84.714727 -16.407578 15.457726 2.100043 0.000196 0.007554 84.041851 -11.312561 10.631364 2.125503 -0.000029 0.007524 0.000003 0.000000 0.000000 -8.207786 -6.751667 -1.599560 -0.077001 -0.000003 0.000080 -0.000002 -44.370110 0.345938 0.153719 -0.000000 -0.000000 0.000000 -44.423679 -3.043532 -0.076700 0.000000 -0.000002 -0.000006 -8.728667 10.710559 -0.000009 -0.000000 -0.000000 -0.000001 -0.000679 9.278123 0.000000 -0.000000 -0.000000 8.207792 -6.751710 -1.599556 -0.074518 -0.000003 0.000081 -0.000002 -44.370014 0.346960 0.148822 0.000002 0.000000 -0.000001 -44.423664 -3.044403 -0.074314 0.000000 -0.000002 -0.000004 -8.728671 10.710558 0.000007 -0.000000 -0.000000 0.000000 -0.000680 9.278137 -0.000000 0.000000 -0.000001 
0.000006 104.270477 1.554256 0.000010 0.000003 -0.000113 -0.000005 10.181587 0.131522 0.000001 -0.000003 0.000084 -0.000000 9.893967 -1.470711 0.000001 0.000000 -0.000000 -0.000000 9.220802 -1.370642 0.000000 -0.000000 -0.000000 0.000001 16.740433 -2.049030 0.000000 -0.000000 -0.000000 0.000000 9.617859 1.685014 0.000000 0.000000 0.000000 0.000002 22.037384 7.501101 0.000000 -0.000000 0.000000 -4.569968 11.014880 -2.160881 0.000008 0.000001 -0.000038 -10.592860 -0.524659 -2.232033 73.088884 3.876213 -2.873404 -27.841522 0.000024 0.000525 -56.132571 123.871491 90.004845 -28.328825 0.000007 0.000029 -0.000316 -0.000042 0.000009 -2.464429 -1.573731 2.682295 -52.094198 -169.577614 -21.904121 -3.215285 -1.872609 1.924659 154.260970 31.484003 3.328839 -2.654962 -1.527902 1.513089 146.572882 26.856881 -38.772911 -2.018833 -1.152002 1.108063 -0.000003 -0.000002 -0.000001 -9.108370 -0.517558 2.260139 104.323736 16.071321 -20.662045 -3.700061 0.000326 0.001547 101.429470 14.190138 -17.273608 -2.850082 0.000366 -0.000242 100.483667 11.157412 -13.391552 -2.772156 0.000002 -0.000023 0.000000 -0.000002 -0.000003 -9.532601 0.000258 0.000282 99.665069 17.507018 -20.846193 -3.700061 0.000341 0.004005 100.265661 13.719514 -16.278620 -2.950052 0.000343 -0.001780 102.112298 11.910437 -14.700838 -2.946636 -0.000000 -0.000158 -0.000001 0.000002 -0.000002 -9.103701 -0.042767 -1.864859 98.196230 18.444043 -21.178612 -3.379319 0.000322 -0.000784 99.482607 10.356416 -12.237275 -2.889755 0.000345 0.000667 104.349485 7.138064 -9.245018 -2.638812 -0.000015 0.000945 0.000001 -0.000001 0.000004 -8.076741 -0.486400 -3.806004 91.956913 19.925706 -20.444262 -3.600033 0.000282 -0.003485 93.811064 8.986111 -9.220035 -2.100006 0.000313 -0.005459 95.827117 4.321534 -4.546273 -2.115764 -0.000048 -0.003675 0.000000 0.000002 -0.000005 4.570446 11.014691 -2.160851 -0.000018 0.000010 -0.000021 10.592354 -0.524568 -2.232247 72.421691 21.272503 -15.658478 27.841831 0.000151 -0.000222 104.100020 -58.016084 70.825537 28.328840 -0.000017 0.000023 0.000023 -0.000090 -0.000003 2.466180 -1.576143 2.681871 -8.481301 161.593765 -71.965038 3.217890 -1.871850 1.916425 161.612753 -21.233907 45.409915 2.656116 -1.528660 1.514496 138.850082 -27.798342 55.886404 2.020884 -1.154087 1.115141 -0.000002 0.000005 0.000002 9.109378 -0.517854 2.259738 91.361259 -19.420203 19.864909 3.700041 0.000165 -0.000465 88.350109 -12.307491 11.976974 2.850040 0.000185 0.000195 86.642083 -8.931890 8.423887 2.774880 -0.000032 -0.000029 -0.000001 0.000005 -0.000000 9.533468 0.000210 -0.000061 92.332239 -18.457075 19.200662 3.700017 0.000213 -0.000378 91.890531 -10.121805 10.456872 2.950037 0.000203 -0.000208 91.541474 -9.115202 9.365600 2.952860 -0.000046 0.000060 0.000001 -0.000005 0.000002 9.104586 -0.042832 -1.865204 92.652725 -18.063637 18.906901 3.150058 0.000215 -0.000098 96.617677 -12.560847 14.089754 2.950027 0.000207 -0.000066 96.999560 -9.962400 11.254448 2.644331 0.000029 0.000061 -0.000001 -0.000003 0.000001 8.077848 -0.486709 -3.806371 85.582571 -20.636619 19.698114 3.600010 0.000184 0.014568 84.661424 -18.038567 16.942397 2.100052 0.000196 0.007534 83.617239 -12.624055 11.735074 2.125499 -0.000013 0.007522 -0.000001 -0.000000 -0.000001 -8.207786 -6.751667 -1.599560 -0.077001 -0.000003 0.000080 -0.000002 -44.370110 0.345938 0.153719 -0.000000 -0.000000 0.000000 -44.423679 -3.043532 -0.076700 0.000000 -0.000002 -0.000006 -8.728667 10.710559 -0.000009 -0.000000 -0.000000 -0.000001 -0.000679 9.278123 0.000000 -0.000000 -0.000000 8.207792 -6.751710 -1.599556 -0.074518 -0.000003 0.000081 -0.000002 -44.370014 0.346960 0.148822 0.000002 0.000000 -0.000001 -44.423664 -3.044403 -0.074314 0.000000 -0.000002 -0.000004 -8.728671 10.710558 0.000007 -0.000000 -0.000000 0.000000 -0.000680 9.278137 -0.000000 0.000000 -0.000001 
